/* XPM */
static char *_0890_26b6da5f0ff630ba5ab34cf38c08371134508bf94166523d1c539242a2c8c52f[] = {
/* columns rows colors chars-per-pixel */
"32 32 11 1 ",
"  c gray9",
". c #2E2415",
"X c #213F2F",
"o c #4F3712",
"O c #346B3D",
"+ c #644F1B",
"@ c #7B642E",
"# c #598C46",
"$ c #77A947",
"% c #93C147",
"& c None",
/* pixels */
"&&&&&&&  &&&&&&&&&&&&&&  &&&&&&&",
"&&&&&& %% &&&&&&&&&&&& %% &&&&&&",
"&&&&& #%%# &&&&&&&&&& #%%# &&&&&",
"&&&&& $$$$ &&&&&&&&&& $$$$ &&&&&",
"&&&& O#$$#O &&&&&&&& O#$$#O &&&&",
"&&& X######X &&&&&& X######X &&&",
"&&& OO####OO &&&&&& OO####OO &&&",
"&&& OOOOOOOO &&&&&& OOOOOOOO &&&",
"&&& XOOOOOOX &&&&&& XOOOOOOX &&&",
"&&& XXXXXXXX &&&&&& XXXXXXXX &&&",
"&&&& XXXXXX &&&&&&&& XXXXXX &&&&",
"&&&&& .oo. &&&&&&&&&& .oo. &&&&&",
"&&&&&.o++o.&&&&&&&&&&.o++o.&&&&&",
"&&&&&&.@@.&&&&&&&&&&&&.@@.&&&&&&",
"&&&&&&&&&&&&&&&&&&&&&&&&&&&&&&&&",
"&&&&&&&&&&&&&&&&&&&&&&&&&&&&&&&&",
"&&&&&&&  &&&&&&&&&&&&&&  &&&&&&&",
"&&&&&& %% &&&&&&&&&&&& %% &&&&&&",
"&&&&& #%%# &&&&&&&&&& #%%# &&&&&",
"&&&&& $$$$ &&&&&&&&&& $$$$ &&&&&",
"&&&& O#$$#O &&&&&&&& O#$$#O &&&&",
"&&& X######X &&&&&& X######X &&&",
"&&& OO####OO &&&&&& OO####OO &&&",
"&&& OOOOOOOO &&&&&& OOOOOOOO &&&",
"&&& XOOOOOOX &&&&&& XOOOOOOX &&&",
"&&& XXXXXXXX &&&&&& XXXXXXXX &&&",
"&&&& XXXXXX &&&&&&&& XXXXXX &&&&",
"&&&&& .oo. &&&&&&&&&& .oo. &&&&&",
"&&&&&.o++o.&&&&&&&&&&.o++o.&&&&&",
"&&&&&&.@@.&&&&&&&&&&&&.@@.&&&&&&",
"&&&&&&&&&&&&&&&&&&&&&&&&&&&&&&&&",
"&&&&&&&&&&&&&&&&&&&&&&&&&&&&&&&&"
};
