/* XPM */
static char *_4727_fac3b84c36d172e9a0f35cbcdbf48e91d0484bbe509122649483e7b5ec22e3bf[] = {
/* columns rows colors chars-per-pixel */
"32 32 169 2 ",
"   c black",
".  c #010208",
"X  c #050B1C",
"o  c #020A10",
"O  c #002412",
"+  c #00311B",
"@  c #003B14",
"#  c #080F23",
"$  c #091025",
"%  c #0B142B",
"&  c #0F1833",
"*  c #121C3A",
"=  c #003B21",
"-  c #513F34",
";  c #483B2E",
":  c #004815",
">  c #004D2C",
",  c #00502E",
"<  c #025A22",
"1  c #005C34",
"2  c #025C39",
"3  c #055337",
"4  c #094B3A",
"5  c #00623A",
"6  c #176036",
"7  c #00763D",
"8  c #2D6C2B",
"9  c #4D503D",
"0  c #585925",
"q  c #162244",
"w  c #19264A",
"e  c #1B284E",
"r  c #1D2B53",
"t  c #1A3F52",
"y  c #1C3153",
"u  c #17474F",
"i  c #144746",
"p  c #12554B",
"a  c #175652",
"s  c #195553",
"d  c #10654F",
"f  c #007747",
"g  c #027D4C",
"h  c #146352",
"j  c #1A6153",
"k  c #136A52",
"l  c #0D7252",
"z  c #097951",
"x  c #356E57",
"c  c #514B48",
"v  c #484B42",
"b  c #676B4F",
"n  c #008842",
"m  c #018651",
"M  c #008D51",
"N  c #009251",
"B  c #009A52",
"V  c #159053",
"C  c #268B50",
"Z  c #04B14A",
"A  c #00A352",
"S  c #00AD53",
"D  c #12A452",
"F  c #00BD53",
"G  c #00B451",
"H  c #48955B",
"J  c #639D4D",
"K  c #49BD4F",
"L  c #7AA651",
"P  c #639262",
"I  c #719272",
"U  c #57BE67",
"Y  c #00C046",
"T  c #00C354",
"R  c #00CC53",
"E  c #13CE54",
"W  c #00D455",
"Q  c #00DB55",
"!  c #33CF56",
"~  c #00E756",
"^  c #17E756",
"/  c #18E756",
"(  c #35E855",
")  c #5EC650",
"_  c #59DD52",
"`  c #47D859",
"'  c #75D54E",
"]  c #45E65E",
"[  c #5DE65F",
"{  c #7DEB4F",
"}  c #75E85B",
"|  c #919111",
" . c #AFB11B",
".. c #A1A825",
"X. c #C0C01B",
"o. c #C2D33F",
"O. c #D5E039",
"+. c #DFF938",
"@. c #FFFF27",
"#. c #F7FD2C",
"$. c #FBFD2C",
"%. c #E6ED33",
"&. c #E5FA35",
"*. c #E8FB34",
"=. c #F8FE37",
"-. c #9EA048",
";. c #91A26F",
":. c #9AEE4B",
">. c #BEF443",
",. c #A6F059",
"<. c #AAEF48",
"1. c #9BDC7B",
"2. c #A6DD7F",
"3. c #B8DF7F",
"4. c #80E16F",
"5. c #BEE378",
"6. c #C2C340",
"7. c #D9D05D",
"8. c #C2E340",
"9. c #C2F442",
"0. c #FDFD4F",
"q. c #E6F842",
"w. c #C2E07E",
"e. c #FFF06B",
"r. c #FDE97D",
"t. c #EDF970",
"y. c #FFFC78",
"u. c #E6E875",
"i. c #77A187",
"p. c #79C48B",
"a. c #7EE987",
"s. c #91AE92",
"d. c #B4AB83",
"f. c #ACAEB4",
"g. c #DBAF96",
"h. c #DEB896",
"j. c #E9BE9E",
"k. c #8ED897",
"l. c #BDDB8A",
"z. c #B5C2AD",
"x. c #C1D98B",
"c. c #CFCD97",
"v. c #D2C790",
"b. c #D8D498",
"n. c #FFDF8F",
"m. c #E8C19E",
"M. c #E6D29D",
"N. c #FFD998",
"B. c #FFEA86",
"V. c #FFFC80",
"C. c #E5F693",
"Z. c #C6D8BB",
"A. c #FECDAC",
"S. c #F0C0A0",
"D. c #F0D0A2",
"F. c #FFF9A5",
"G. c #FCF7AB",
"H. c #FFF8AD",
"J. c #FFF8B2",
"K. c #D0CEC8",
"L. c #E6F1C0",
"P. c #FFF4CE",
"I. c #E6EFD4",
"U. c #E8EFD5",
"Y. c #FFEBDC",
"T. c #FEF4D2",
"R. c #FFF0E5",
"E. c #FFF1E8",
"W. c None",
/* pixels */
"W.W.W.W.W.W.W.W.W.W.W.W.W.W.W.W.W.W.W.W.W.W.W.W.W.W.W.W.W.W.W.W.",
"W.W.W.W.W.W.W.W.W.W.W.W.W.W.W.W.W.W.W.W.W.W.W.W.W.W.W.W.W.W.W.W.",
"W.W.W.W.W.W.W.W.W.W.W.              W.W.W.W.W.W.W.W.W.W.W.W.W.W.",
"W.W.W.W.W.W.W.W.W.W.% * 3 6  ...2 > W.W.W.W.W.W.W.W.W.W.W.W.W.W.",
"W.W.W.W.W.W.W.W.W.  * r l C $.%.m 5   W.W.W.W.W.W.W.W.W.W.W.W.W.",
"W.W.W.W.W.W.W.  # q a l F E :.<.O...            W.W.W.W.W.W.W.W.",
"W.W.W.W.W.W.W.  # r h M W ~ ~ { @.X.              W.W.W.W.W.W.W.",
"W.W.W.W.W.  . w u m m m k a < 8 J K Q v.S.` R m 5   W.W.W.W.W.W.",
"W.W.W.W.W.+ = j x P H B h u o = m G Q b.D.} _ B 7 + W.W.W.W.W.W.",
"W.W.W.W.. f m Q 4.A.l.~ A m O     1 M W / #.*.~ T m >   W.W.W.W.",
"W.W.W.% % I i.1.l.n.5.~ F S 1 , > n S Q / #.*.:.' S 7 > W.W.W.W.",
"W.W.  * w f.K.A.N.@.>.~ ~ ~ M m m F ~ ~ / #.@.@.9.~ S m O   W.W.",
"W.W.  4 k p.k.r.B.J.C.O.5.l.! F T W ~ <.>.G.F.@.8.F T R @   W.W.",
"W.W.  5 m W ( #.y.R.H.@.N.A.] ~ ~ ~ ~ +.#.R.T.@.6.m W ~ :   W.W.",
"W.W.  5 m B D { ,.y.H.T.T.R.I.L.&.C.I.T.T.V.t.:.) M Z.U.v   W.W.",
"W.W.  5 m m M ~ { #.F.R.E.E.R.P.$.F.R.R.E.0.+.~ T N K.R.c   W.W.",
"W.W.  5 m m m ~ ^ ( l.A.A.A.0.=.@.B.A.A.A.[ ( M F ~ b.A.9   W.W.",
"W.W.  2 z m M Q ~ ~ l.M.M.M.q.*.&.u.M.M.M.] W m U a.c.j.;   W.W.",
"W.W.  * r z m m A ~ ~ ~ ~ ~ ~ ~ ~ ~ ~ ~ ~ ~ W M f.R.s.m O   W.W.",
"W.W.  & * g m m A ~ ~ ~ ~ ~ ~ ~ ~ ~ ~ ~ ~ T U d.M.H.;.7 O W.W.W.",
"W.W.W.W.  f m m A ~ ~ ~ ~ ~ ~ ~ ~ ~ ~ ~ ~ N I A.B.@.|   W.W.W.W.",
"W.W.W.W.  p a m N S R ~ ~ ~ ~ Q G R ~ F G m L e.7.-.0   W.W.W.W.",
"W.W.W.W.  w r m m m F ~ ~ ~ ~ W m F ~ S m m L @.o.e %   W.W.W.W.",
"W.W.W.W.W.X X u a m M B W ~ A N m N B m V j.h.b 9 X W.W.W.W.W.W.",
"W.W.W.W.W.  . e u m z m R Q M m z m m N V j.g.e *   W.W.W.W.W.W.",
"W.W.W.W.W.W.W.  $ r r r z m m g r h m W ~ s w     W.W.W.W.W.W.W.",
"W.W.W.W.W.W.W.  # q q q h l l k r a l Z Y i q   W.W.W.W.W.W.W.W.",
"W.W.W.W.W.W.W.W.W.      w r r r r r r %       W.W.W.W.W.W.W.W.W.",
"W.W.W.W.W.W.W.W.W.W.W.W.& * * * * * * # W.W.W.W.W.W.W.W.W.W.W.W.",
"W.W.W.W.W.W.W.W.W.W.W.W.              W.W.W.W.W.W.W.W.W.W.W.W.W.",
"W.W.W.W.W.W.W.W.W.W.W.W.W.W.W.W.W.W.W.W.W.W.W.W.W.W.W.W.W.W.W.W.",
"W.W.W.W.W.W.W.W.W.W.W.W.W.W.W.W.W.W.W.W.W.W.W.W.W.W.W.W.W.W.W.W."
};
