/* XPM */
static char *_7847_47a43d0253f93f16bb64340230b1d16d17813ab29f8ed4b2f57dee2840eada16[] = {
/* columns rows colors chars-per-pixel */
"17 30 15 1 ",
"  c #101010",
". c #240312",
"X c #28221E",
"o c #490A1E",
"O c #5B3843",
"+ c #595047",
"@ c #6C444C",
"# c #655452",
"$ c #7D595D",
"% c #862B2A",
"& c #A25342",
"* c #928182",
"= c #AA9393",
"- c #AEA8A8",
"; c None",
/* pixels */
";;;;;;;;;;;...;;;",
";;;;&&&&%%o....;;",
";;;&&&&%%o......;",
";;;&&&%%%o......;",
";;&&&&&&%%o.....;",
";;&&&&&&%%o.....;",
";&&&&&&&&%%o....;",
";&&XX&&X&%%oo..;;",
";&oXX=@X&%oo...;;",
";&oX==@X&ooo..;;;",
";;oX==@Xooo.####;",
";;&+X@@+Xo.....#;",
";;++XX%+XX......#",
";;++XX&&&%oo....#",
";;+*&&&&%oooo...#",
";;;*&&&&%oooo...#",
"$$;$*---%%oo....#",
"$$$$@   -****#.#;",
";;$$@   =$$  ##;;",
";;;;;   =$      ;",
";;;;;  ==$       ",
";;;;   =$        ",
";;;;             ",
";;;;             ",
";;;    =;  OO###;",
";;;;;==*;  ;#### ",
";;;;;-*;;; ;;;;  ",
";;;;;-*;;;;;;;;; ",
";;;;;- ;;;;;;;;;;",
";;;;   ;;;;;;;;;;"
};
