/* XPM */
static char *_2576_0ceb4c3cd600efbe89eb986dd32289432a78f2fab35fea3a873c0838b184e63d[] = {
/* columns rows colors chars-per-pixel */
"32 32 11 1 ",
"  c #341D3D",
". c #42234E",
"X c #4D295B",
"o c #582F68",
"O c #673779",
"+ c gray32",
"@ c #565656",
"# c #5F5F5F",
"$ c #734286",
"% c #7E4893",
"& c None",
/* pixels */
"&&&&&&&&&&&&&&&&&&&&&&&&&&&&&&&&",
"&&&&&&&&&&&&&&&&&&&&&&&&&&&&&&&&",
"&&&&&&&&&&&&########&&&&&&&&&&&&",
"&&&&&&&&&&###++++++###&&&&&&&&&&",
"&&&&&&&&###++@@@@@@++###&&&&&&&&",
"&&&&&&&##+@@@@####@@@@+##&&&&&&&",
"&&&&&&##+@@###O$$O###@@+##&&&&&&",
"&&&&&##+@@#O$$%%%%$$O#@@+##&&&&&",
"&&&&##+@@#O$%%$$%$$%$O#@@+##&&&&",
"&&&&#+@@#O$%$$OO%O%$%$O#@@+#&&&&",
"&&&##@@#O$%$OOOo%oO%$%$O#@@##&&&",
"&&&#+@#O$%$%OooX%Xo%O$%$O#@+#&&&",
"&&##+@#$%$OO%XXX.%%oOO$%$#@+##&&",
"&&#+@@#$$OOoX%....XXoO$%$#@@+#&&",
"&&#+@#O%$Oo%X%.. ..XoOO$%O#@+#&&",
"&&#+@#$%$O%X.%   ..%%oO$%$#@+#&&",
"&&#+@#$%$Oo%%..   %.X%O$%$#@+#&&",
"&&#+@#O%$OOoX.. ..%X%oO$%O#@+#&&",
"&&#+@@#$%$OoXX....%XoOO$$#@@+#&&",
"&&##+@#$%$OOo%%.XXX%OO$%$#@+##&&",
"&&&#+@#O$%$O%oX%XooO%$%$O#@+#&&&",
"&&&##@@#O$%$%Oo%oOOO$%$O#@@##&&&",
"&&&&#+@@#O$%$%O%OO$$%$O#@@+#&&&&",
"&&&&##+@@#O$%$$%$$%%$O#@@+##&&&&",
"&&&&&##+@@#O$$%%%%$$O#@@+##&&&&&",
"&&&&&&##+@@###O$$O###@@+##&&&&&&",
"&&&&&&&##+@@@@####@@@@+##&&&&&&&",
"&&&&&&&&###++@@@@@@++###&&&&&&&&",
"&&&&&&&&&&###++++++###&&&&&&&&&&",
"&&&&&&&&&&&&########&&&&&&&&&&&&",
"&&&&&&&&&&&&&&&&&&&&&&&&&&&&&&&&",
"&&&&&&&&&&&&&&&&&&&&&&&&&&&&&&&&"
};
