/* XPM */
static char *_2607_d30a003c33e8e1d35ab794c1b7b09558142f827cceb464dc9e156fa9c52eaa2f[] = {
/* columns rows colors chars-per-pixel */
"17 30 15 1 ",
"  c #101010",
". c #240312",
"X c #28221E",
"o c #490A1E",
"O c #5B3843",
"+ c #595047",
"@ c #6C444C",
"# c #655452",
"$ c #7D595D",
"% c #862B2A",
"& c #A25342",
"* c #928182",
"= c #AA9393",
"- c #AEA8A8",
"; c None",
/* pixels */
";;;...;;;;;;;;;;;",
";;....o%%&&&&;;;;",
";......o%%&&&&;;;",
";......o%%%&&&;;;",
";.....o%%&&&&&&;;",
";.....o%%&&&&&&;;",
";....o%%&&&&&&&&;",
";;..oo%%&X&&XX&&;",
";;...oo%&X@=XXo&;",
";;;..ooo&X@==Xo&;",
";####.oooX@==Xo;;",
";#.....oX+@@X+&;;",
"#......XX+%XX++;;",
"#....oo%&&&XX++;;",
"#...oooo%&&&&*+;;",
"#...oooo%&&&&*;;;",
"#....oo%%---*$;$$",
";#.#****-   @$$$$",
";;##  $$=   @$$;;",
";      $=   ;;;;;",
"       $==  ;;;;;",
"        $=   ;;;;",
"             ;;;;",
"             ;;;;",
";###OO  ;=    ;;;",
" ####;  ;*==;;;;;",
"  ;;;; ;;;*-;;;;;",
" ;;;;;;;;;*-;;;;;",
";;;;;;;;;; -;;;;;",
";;;;;;;;;;   ;;;;"
};
